<svg xmlns="http://www.w3.org/2000/svg" width="148.04" height="86.08" viewBox="0 0 148.04 86.08"><defs><style>.a,.b{fill:#9a277f;}.a{stroke:#9a277f;stroke-miterlimit:10;}</style></defs><g transform="translate(0.5 0.5)"><rect class="a" width="3.06" height="24.4" rx="0.55" transform="translate(71.99)"/><path class="a" d="M61.69,61.35a.55.55,0,0,1-.53-.41L57.73,48.17a.56.56,0,0,1,.39-.68L60,47a.32.32,0,0,1,.14,0,.55.55,0,0,1,.53.4l3.42,12.78a.54.54,0,0,1-.39.67l-1.89.51Z" transform="translate(-1.97 -35)"/><path class="a" d="M49.81,66.55a.56.56,0,0,1-.48-.28L42.72,54.82a.62.62,0,0,1-.06-.42.54.54,0,0,1,.26-.33l1.7-1a.5.5,0,0,1,.27-.08.56.56,0,0,1,.48.28L52,64.74a.55.55,0,0,1-.2.75l-1.7,1A.5.5,0,0,1,49.81,66.55Z" transform="translate(-1.97 -35)"/><path class="a" d="M39.68,74.64a.51.51,0,0,1-.39-.16L22.81,58a.55.55,0,0,1,0-.77l1.38-1.39a.59.59,0,0,1,.39-.16.55.55,0,0,1,.39.16L41.45,72.32a.54.54,0,0,1,0,.78l-1.38,1.38a.54.54,0,0,1-.39.16Z" transform="translate(-1.97 -35)"/><path class="a" d="M32,85.09a.57.57,0,0,1-.28-.08L20.26,78.4a.56.56,0,0,1-.26-.34.5.5,0,0,1,.06-.41L21,76a.53.53,0,0,1,.47-.27.55.55,0,0,1,.28.07L33.2,82.41a.59.59,0,0,1,.26.34.49.49,0,0,1-.06.41l-1,1.7A.56.56,0,0,1,32,85.09Z" transform="translate(-1.97 -35)"/><path class="a" d="M27.26,97.16a.36.36,0,0,1-.14,0L14.34,93.72a.56.56,0,0,1-.39-.67l.51-1.9a.55.55,0,0,1,.53-.4.32.32,0,0,1,.14,0l12.78,3.42a.55.55,0,0,1,.39.67l-.51,1.89a.55.55,0,0,1-.53.43Z" transform="translate(-1.97 -35)"/><rect class="a" width="24.4" height="3.06" rx="0.55" transform="translate(0 71.99)"/><rect class="a" width="24.4" height="3.06" rx="0.55" transform="translate(122.64 71.99)"/><path class="a" d="M123.72,97.16a.55.55,0,0,1-.53-.41l-.51-1.89a.54.54,0,0,1,.39-.67l12.77-3.42a.39.39,0,0,1,.15,0,.56.56,0,0,1,.53.4l.5,1.9a.54.54,0,0,1-.38.67l-12.78,3.42a.36.36,0,0,1-.14,0Z" transform="translate(-1.97 -35)"/><path class="a" d="M119,85.09a.54.54,0,0,1-.47-.28l-1-1.7a.54.54,0,0,1,.2-.75l11.45-6.61a.56.56,0,0,1,.75.2l1,1.7a.55.55,0,0,1-.2.75L119.27,85a.57.57,0,0,1-.28.08Z" transform="translate(-1.97 -35)"/><path class="a" d="M111.3,74.64a.53.53,0,0,1-.39-.16l-1.38-1.38a.54.54,0,0,1,0-.78L126,55.84a.543.543,0,0,1,.77,0l1.39,1.39a.55.55,0,0,1,0,.77L111.69,74.48A.51.51,0,0,1,111.3,74.64Z" transform="translate(-1.97 -35)"/><path class="a" d="M101.17,66.55a.5.5,0,0,1-.27-.08l-1.7-1a.55.55,0,0,1-.2-.75l6.61-11.45a.56.56,0,0,1,.48-.28.5.5,0,0,1,.27.08l1.7,1a.55.55,0,0,1,.2.75l-6.61,11.45A.56.56,0,0,1,101.17,66.55Z" transform="translate(-1.97 -35)"/><path class="a" d="M89.29,61.35h-.14l-1.89-.51a.51.51,0,0,1-.34-.25.56.56,0,0,1,0-.42l3.42-12.78a.54.54,0,0,1,.53-.4A.32.32,0,0,1,91,47l1.9.5a.55.55,0,0,1,.38.68L89.82,60.94a.55.55,0,0,1-.53.41Z" transform="translate(-1.97 -35)"/><path class="b" d="M75.67,120.58a4.72,4.72,0,0,1-4.75-5.14L75.19,67a.06.06,0,0,1,.06-.06.09.09,0,0,1,.09.06l5.12,48.38A4.68,4.68,0,0,1,79.28,119a4.63,4.63,0,0,1-3.48,1.58Z" transform="translate(-1.97 -35)"/></g></svg>