<svg xmlns="http://www.w3.org/2000/svg" width="89.97" height="126.81" viewBox="0 0 89.97 126.81"><defs><style>.a{fill:#e5a630;}</style></defs><path class="a" d="M97.57,138.39a1.3,1.3,0,0,0,.37-1c0-.73-.69-17.4-2.66-27.14a41.57,41.57,0,0,0,21.16-31.84A4.84,4.84,0,0,0,120,73.78a5,5,0,0,0-5-4.92H104.59c4.43-10.43,6-40.74,6.35-47.35a5,5,0,0,0-.2-9.9H39.26a5,5,0,0,0-.2,9.9c.31,6.61,1.92,36.92,6.35,47.35H35a4.88,4.88,0,0,0-1.4,9.58,41.47,41.47,0,0,0,21.19,31.84c-2,9.74-2.63,26.41-2.66,27.14a1.31,1.31,0,0,0,.38,1m2.35-2.25c.19-4.13.86-16.54,2.38-24.55.58.28,1.18.48,1.76.72s1.22.52,1.85.75c.92.33,1.85.6,2.79.87.6.17,1.2.36,1.81.51,1,.24,2.1.41,3.16.57.53.08,1,.2,1.57.26a40.7,40.7,0,0,0,9.7,0c.54-.07,1.06-.19,1.6-.27,1.06-.16,2.12-.33,3.16-.58.63-.14,1.23-.34,1.85-.51.94-.27,1.86-.53,2.77-.86.65-.23,1.27-.5,1.9-.76s1.15-.43,1.71-.7c1.49,8,2.19,20.42,2.39,24.55M37,16.57a2.31,2.31,0,0,1,2.3-2.3h71.48a2.3,2.3,0,1,1,0,4.6H39.26A2.31,2.31,0,0,1,37,16.57Zm4.77,5h66.54c-.55,12.15-2.61,40.16-6.61,47.31H48.34c-4-7.17-6.06-35.18-6.61-47.33Zm51.45,86.9a39.6,39.6,0,0,1-22.92,4.16,39,39,0,0,1-34-33.86h77.54a39,39,0,0,1-20.66,29.68Zm22-32.4H35.06a1.241,1.241,0,0,0-.27,0,2.26,2.26,0,0,1-2.12-2.27A2.31,2.31,0,0,1,35,71.52h80a2.31,2.31,0,0,1,2.3,2.26,2.26,2.26,0,0,1-2.1,2.27Z" transform="translate(-30.03 -11.61)"/><path class="a" d="M95.81,25.26a6.2,6.2,0,0,0-5.39,3.09H82.65a3.18,3.18,0,1,0,0,6.35h7.77a6.26,6.26,0,1,0,5.39-9.44Zm0,9.86a3.59,3.59,0,0,1-3.33-2.26L92.15,32h-9.5a.51.51,0,0,1,0-1h9.5l.33-.83a3.59,3.59,0,1,1,3.33,4.94Z" transform="translate(-30.03 -11.61)"/></svg>