<svg xmlns="http://www.w3.org/2000/svg" width="150.003" height="65.02" viewBox="0 0 150.003 65.02"><defs><style>.a{fill:none;stroke:#29246e;stroke-linejoin:round;stroke-width:3.9px;}</style></defs><g transform="translate(0.003 1.95)"><path class="a" d="M150,83.33c-5.16,0-10-.11-14.49-.32" transform="translate(0 -44.44)"/><path class="a" d="M136,71.92c4.35.2,9,.3,14,.3" transform="translate(0 -44.44)"/><path class="a" d="M78.2,57.44c5.74-7.3,14.51-13,30.13-13,16.8,0,26.4,13.65,27.64,27.48L135.51,83c-3.16,19.4-17.95,22.55-27.18,22.55-14.57,0-23.33-5-32.6-10.34-1.42-.81-2.88-1.64-4.4-2.49" transform="translate(0 -44.44)"/><path class="a" d="M82.22,72.14c-.8,1.67-1.59,3.43-2.39,5.23s-1.73,3.89-2.71,5.87l-5.79,9.49C65.66,99.94,57,105.56,41.67,105.56c-12.23,0-26.41-7.26-27.69-27.44" transform="translate(0 -44.44)"/><path class="a" d="M25.21,79C26.8,92.85,37.05,94.44,41.67,94.44" transform="translate(0 -44.44)"/><path class="a" d="M72.41,66.93c-1,2-1.87,4-2.73,5.92s-1.62,3.63-2.45,5.34l-6.16,9.46c-4.06,4.2-9.81,6.79-19.4,6.79" transform="translate(0 -44.44)"/><path class="a" d="M0,66.67c5.47,0,10.56.13,15.3.38L26.94,68c18.48,2,30.79,5.89,40.29,10.22l-6.16,9.46C52.5,84,41.42,80.66,25.21,79L14,78.12q-6.49-.33-14-.34" transform="translate(0 -44.44)"/><path class="a" d="M124.39,82.25c-19.85-1.84-32.73-5.78-42.17-10.11l-9.81-5.21c-1.85-1.11-3.56-2.21-5.2-3.25-7.69-4.89-12.77-8.12-22.77-8.12-8.8,0-14.68,6.46-17.5,12.41" transform="translate(0 -44.44)"/><path class="a" d="M88.29,62.69c4.14-4.4,10-7.13,20-7.13,9.48,0,15,7.34,16.36,15.58l-.3,11.11c-1.65,8.47-6.71,12.19-16.06,12.19-11.61,0-18.1-3.71-27.08-8.86-1.34-.77-2.71-1.55-4.13-2.34" transform="translate(0 -44.44)"/><path class="a" d="M124.69,71.14c-16.9-1.6-28.06-4.8-36.4-8.45L78.2,57.44c-1.77-1.06-3.42-2.11-5-3.13-8-5.07-15.5-9.87-28.74-9.87C29.56,44.44,19,56,15.3,67.05" transform="translate(0 -44.44)"/></g></svg>