<svg xmlns="http://www.w3.org/2000/svg" width="114.14" height="114.24" viewBox="0 0 114.14 114.24"><defs><style>.a{fill:none;stroke:#9a277f;stroke-linejoin:round;stroke-width:4.14px;}</style></defs><g transform="translate(2.07)"><path class="a" d="M47.5,17.88c0,30.15,23.27,26.8,23.27,50.77C70.77,97.39,50.67,94,39,94c-16.92,0-19,12.34-19,38.08" transform="translate(-20 -17.88)"/><path class="a" d="M60.19,17.88c0,5.47,5.82,10.76,12.69,10.76,10.69,0,12-4.41,23.27-4.41,16.93,0,33.85,16.92,33.85,38.08,0,33-38.61,63.46-61.35,63.46C47,125.77,51.38,115.19,39,115.19c-4.32,0-6.35,10.4-6.35,16.93" transform="translate(-20 -17.88)"/><path class="a" d="M100.38,39c7.41,0,16.93,8.46,16.93,21.15" transform="translate(-20 -17.88)"/></g></svg>