<svg xmlns="http://www.w3.org/2000/svg" width="148.04" height="80.189" viewBox="0 0 148.04 80.189"><defs><style>.a,.b{fill:#e5a630;}.a{stroke:#e5a630;stroke-miterlimit:10;}</style></defs><g transform="translate(0.5 0.5)"><rect class="a" width="3.06" height="24.4" rx="0.55" transform="translate(71.99)"/><path class="a" d="M88.8,61.35a.55.55,0,0,0,.53-.41l3.42-12.77a.55.55,0,0,0-.38-.68l-1.9-.5a.32.32,0,0,0-.14,0,.55.55,0,0,0-.53.4L86.38,60.15a.54.54,0,0,0,.39.67l1.89.51Z" transform="translate(-1.48 -35)"/><path class="a" d="M100.68,66.55a.56.56,0,0,0,.48-.28l6.61-11.45a.62.62,0,0,0,.06-.42.54.54,0,0,0-.26-.33l-1.7-1a.5.5,0,0,0-.27-.08.56.56,0,0,0-.48.28L98.51,64.74a.55.55,0,0,0,.2.75l1.7,1a.5.5,0,0,0,.27.06Z" transform="translate(-1.48 -35)"/><path class="a" d="M110.81,74.64a.51.51,0,0,0,.39-.16L127.68,58a.55.55,0,0,0,0-.77l-1.39-1.39a.543.543,0,0,0-.77,0L109,72.32a.54.54,0,0,0,0,.78l1.38,1.38A.54.54,0,0,0,110.81,74.64Z" transform="translate(-1.48 -35)"/><path class="a" d="M118.5,85.09a.57.57,0,0,0,.28-.08l11.45-6.61a.56.56,0,0,0,.26-.34.5.5,0,0,0-.06-.41l-1-1.7a.53.53,0,0,0-.47-.27.55.55,0,0,0-.28.07l-11.45,6.61a.59.59,0,0,0-.26.34.49.49,0,0,0,.06.41l1,1.7a.54.54,0,0,0,.47.28Z" transform="translate(-1.48 -35)"/><path class="a" d="M123.23,97.16a.36.36,0,0,0,.14,0l12.78-3.42a.54.54,0,0,0,.38-.67l-.5-1.9a.55.55,0,0,0-.53-.4.39.39,0,0,0-.15,0l-12.77,3.42a.55.55,0,0,0-.39.67l.51,1.89a.55.55,0,0,0,.53.41Z" transform="translate(-1.48 -35)"/><rect class="a" width="24.4" height="3.06" rx="0.55" transform="translate(122.64 71.99)"/><rect class="a" width="24.4" height="3.06" rx="0.55" transform="translate(0 71.99)"/><path class="a" d="M26.77,97.16a.55.55,0,0,0,.53-.41l.51-1.89a.55.55,0,0,0-.39-.67L14.65,90.77a.39.39,0,0,0-.15,0,.55.55,0,0,0-.53.4l-.5,1.9a.54.54,0,0,0,.38.67l12.78,3.42a.36.36,0,0,0,.14,0Z" transform="translate(-1.48 -35)"/><path class="a" d="M31.5,85.09a.54.54,0,0,0,.47-.28l1-1.7a.56.56,0,0,0-.2-.75L21.3,75.75a.55.55,0,0,0-.28-.07.53.53,0,0,0-.47.27l-1,1.7a.55.55,0,0,0,.2.75L31.22,85a.57.57,0,0,0,.28.08Z" transform="translate(-1.48 -35)"/><path class="a" d="M39.19,74.64a.54.54,0,0,0,.39-.16L41,73.1a.54.54,0,0,0,0-.78L24.48,55.84a.543.543,0,0,0-.77,0l-1.39,1.39a.55.55,0,0,0,0,.77L38.8,74.48a.51.51,0,0,0,.39.16Z" transform="translate(-1.48 -35)"/><path class="a" d="M49.32,66.55a.5.5,0,0,0,.27-.08l1.7-1a.55.55,0,0,0,.2-.75L44.88,53.29A.56.56,0,0,0,44.4,53a.5.5,0,0,0-.27.08l-1.7,1a.55.55,0,0,0-.2.75l6.61,11.45a.56.56,0,0,0,.48.28Z" transform="translate(-1.48 -35)"/><path class="a" d="M61.2,61.35h.14l1.89-.51a.51.51,0,0,0,.34-.25.56.56,0,0,0,0-.42L60.2,47.37a.55.55,0,0,0-.53-.4.32.32,0,0,0-.14,0l-1.9.5a.55.55,0,0,0-.38.68l3.42,12.77a.55.55,0,0,0,.53.41Z" transform="translate(-1.48 -35)"/><path class="b" d="M80.82,110.41a4.73,4.73,0,0,0-4.57-5.3l-48.63-1.28a.06.06,0,0,0-.06.06.07.07,0,0,0,.05.09l47.48,10.59a4.64,4.64,0,0,0,3.75-.75,4.7,4.7,0,0,0,2-3.28Z" transform="translate(-1.48 -35)"/></g></svg>